<svg width="32" height="33" viewBox="0 0 32 33" fill="none" xmlns="http://www.w3.org/2000/svg">
<path opacity="0.4" d="M2.66669 9.83333C2.66669 6.88781 5.0545 4.5 8.00002 4.5H24C26.9455 4.5 29.3334 6.88781 29.3334 9.83333V23.1667C29.3334 26.1122 26.9455 28.5 24 28.5H8.00002C5.0545 28.5 2.66669 26.1122 2.66669 23.1667V9.83333Z" fill="#28303F"/>
<path fill-rule="evenodd" clip-rule="evenodd" d="M7.16806 10.6122C7.47441 10.1526 8.09528 10.0285 8.55481 10.3348L13.5964 13.6959C15.052 14.6662 16.9482 14.6662 18.4038 13.6959L23.4454 10.3348C23.9049 10.0285 24.5258 10.1526 24.8322 10.6122C25.1385 11.0717 25.0143 11.6926 24.5548 11.9989L19.5132 15.36C17.3858 16.7782 14.6144 16.7782 12.487 15.36L7.44541 11.9989C6.98588 11.6926 6.8617 11.0717 7.16806 10.6122Z" fill="#28303F"/>
</svg>
