<svg width="34" height="34" viewBox="0 0 34 34" fill="none" xmlns="http://www.w3.org/2000/svg">
<path fill-rule="evenodd" clip-rule="evenodd" d="M11.8839 4.25H22.1164C24.8865 4.25 27.2506 6.25267 27.706 8.98507L29.003 16.7671C29.1469 17.6306 28.481 18.4167 27.6056 18.4167H24.0835C20.9539 18.4167 18.4168 20.9537 18.4168 24.0833V28.3333C18.4168 29.1157 17.7825 29.75 17.0001 29.75H9.52274C6.02109 29.75 3.35751 26.6058 3.93318 23.1517L6.29429 8.98507C6.74969 6.25267 9.11377 4.25 11.8839 4.25ZM17 15.2292C19.934 15.2292 22.3125 12.8507 22.3125 9.91667V8.5C22.3125 7.9132 21.8368 7.4375 21.25 7.4375C20.6632 7.4375 20.1875 7.9132 20.1875 8.5V9.91667C20.1875 11.6771 18.7604 13.1042 17 13.1042C15.2396 13.1042 13.8125 11.6771 13.8125 9.91667V8.5C13.8125 7.9132 13.3368 7.4375 12.75 7.4375C12.1632 7.4375 11.6875 7.9132 11.6875 8.5V9.91667C11.6875 12.8507 14.066 15.2292 17 15.2292Z" fill="#DCF763"/>
</svg>
