<svg width="38" height="38" viewBox="0 0 38 38" fill="none" xmlns="http://www.w3.org/2000/svg">
<path d="M1.5 22.9942L2.84466 25.3979M2.84466 25.3979L4.18932 27.8016M2.84466 25.3979L10.608 20.772M30.9216 36.5L21.9572 20.772L12.9928 36.5M26.551 4.86253L11.0242 14.1143C9.30917 15.1362 8.72156 17.3995 9.71173 19.1695L11.5046 22.3744C12.4948 24.1445 14.6878 24.7509 16.4028 23.729L31.9296 14.4772L26.551 4.86253ZM35.1549 14.6919C33.8686 15.4584 32.2239 15.0035 31.4812 13.676L26.999 5.66375C26.2564 4.33624 26.6971 2.63875 27.9834 1.87231C29.2697 1.10587 30.9144 1.56071 31.6571 2.88823L36.1393 10.9005C36.8819 12.228 36.4412 13.9255 35.1549 14.6919Z" stroke="#28303F" stroke-width="1.5" stroke-linecap="round" stroke-linejoin="round"/>
</svg>
