<svg width="22" height="17" viewBox="0 0 22 17" fill="none" xmlns="http://www.w3.org/2000/svg">
<path d="M21.2125 2.15605C20.4491 2.49375 19.6395 2.71555 18.8106 2.81411C19.6839 2.29132 20.3374 1.4689 20.6493 0.500049C19.8287 0.987609 18.9305 1.33077 17.9938 1.51461C17.2031 0.671058 16.098 0.193029 14.9418 0.194339C12.6326 0.194339 10.7597 2.06661 10.7597 4.37683C10.7597 4.70458 10.7973 5.02242 10.8676 5.32909C7.39048 5.15404 4.31008 3.49005 2.24678 0.959409C1.87529 1.59767 1.68006 2.32318 1.68105 3.06167C1.68105 4.51259 2.41961 5.79324 3.5415 6.543C2.87738 6.522 2.22789 6.34264 1.64719 6.01973C1.64655 6.0373 1.64654 6.05487 1.64654 6.07148C1.64654 8.0984 3.0882 9.7892 5.002 10.1731C4.64281 10.2703 4.27233 10.3194 3.90022 10.3191C3.62997 10.3191 3.36772 10.2942 3.1128 10.2453C3.64532 11.9065 5.18886 13.1159 7.0196 13.1491C5.53813 14.3118 3.70869 14.9426 1.82543 14.9399C1.49212 14.9402 1.15909 14.9205 0.828125 14.8811C2.74004 16.1102 4.96552 16.7625 7.23842 16.7601C14.9316 16.7601 19.138 10.3875 19.138 4.86111C19.138 4.6803 19.1336 4.49886 19.1256 4.31997C19.9443 3.72845 20.651 2.99567 21.2125 2.15605Z" fill="#111111" fill-opacity="0.8"/>
</svg>
